Coordinates
version=1
nRows=4
nColumns=63
inDegrees=yes

Units are S.I. units (second, meters, Newtons, ...)
If the header above contains a line with 'inDegrees', this indicates whether rotational values are in degrees (yes) or radians (no).

endheader
time	pelvis_tilt	pelvis_list	pelvis_rotation	pelvis_tx	pelvis_ty	pelvis_tz	hip_flexion_r	hip_adduction_r	hip_rotation_r	knee_angle_r	knee_angle_r_beta	ankle_angle_r	subtalar_angle_r	mtp_angle_r	hip_flexion_l	hip_adduction_l	hip_rotation_l	knee_angle_l	knee_angle_l_beta	ankle_angle_l	subtalar_angle_l	mtp_angle_l	L5_S1_Flex_Ext	L5_S1_Lat_Bending	L5_S1_axial_rotation	L4_L5_Flex_Ext	L4_L5_Lat_Bending	L4_L5_axial_rotation	L3_L4_Flex_Ext	L3_L4_Lat_Bending	L3_L4_axial_rotation	L2_L3_Flex_Ext	L2_L3_Lat_Bending	L2_L3_axial_rotation	L1_L2_Flex_Ext	L1_L2_Lat_Bending	L1_L2_axial_rotation	L1_T12_Flex_Ext	L1_T12_Lat_Bending	L1_T12_axial_rotation	Abs_r3	Abs_r2	Abs_r1	Abs_t1	Abs_t2	neck_flexion	neck_bending	neck_rotation	arm_flex_r	arm_add_r	arm_rot_r	elbow_flex_r	pro_sup_r	wrist_flex_r	wrist_dev_r	arm_flex_l	arm_add_l	arm_rot_l	elbow_flex_l	pro_sup_l	wrist_flex_l	wrist_dev_l
      9.76666667	      4.92073769	     -1.64509868	    174.15166688	      2.46358311	      0.89228860	      0.58771698	     14.83111340	     -1.69129033	     -9.40853336	     24.55959027	      0.42864571	     23.72454175	      4.05681790	      0.00000000	      9.16900042	      1.32451650	     -5.15834298	     13.05530350	      0.22785803	     16.04720283	    -17.81469936	      0.00000000	      0.00091723	     -0.28165388	     -0.72701351	      0.00170339	     -0.37459966	     -0.77245185	      0.00150692	     -0.68481324	     -0.77245185	      0.00104831	     -0.68481324	     -0.63613682	      0.00085174	     -0.57434859	     -0.59069848	      0.00052411	     -0.43628186	     -0.54526013	      0.00655170	     -3.18612501	     -4.04343104	      0.00000000	      0.00000000	      0.00000000	      0.00000000	      0.00000000	     -5.37526445	     -1.62395108	     -8.77850340	     26.62056294	     47.79936419	      0.00000000	      5.00000014	    -10.66519844	     -8.62961587	      7.21954558	     22.59925697	     53.81892496	      0.00000000	      5.00000014
      9.80000000	      4.89553725	     -1.71853952	    174.01364373	      2.46375613	      0.89216372	      0.58776906	     14.71535771	     -1.68237695	     -9.61897306	     24.53210637	      0.42816603	     23.92686872	      3.95243763	      0.00000000	      9.06098954	      1.35902651	     -4.96993326	     13.10413070	      0.22871023	     16.04875505	    -17.64841380	      0.00000000	      0.00138981	     -0.28663116	     -0.71005836	      0.00258102	     -0.38121945	     -0.75443700	      0.00228333	     -0.69691501	     -0.75443700	      0.00158842	     -0.69691501	     -0.62130106	      0.00129058	     -0.58449827	     -0.57692241	      0.00079414	     -0.44399167	     -0.53254377	      0.00992731	     -3.24242906	     -3.94913156	      0.00000000	      0.00000000	      0.00000000	      0.00000000	      0.00000000	     -5.34702211	     -1.67722718	     -8.78243117	     26.65193779	     47.79534910	      0.00000000	      5.00000014	    -10.67092994	     -8.59315700	      7.25235402	     22.59128393	     53.83278281	      0.00000000	      5.00000014
      9.83333333	      4.84795793	     -1.77071698	    173.89616849	      2.46371382	      0.89180707	      0.58737957	     14.54195610	     -1.63882234	     -9.94309299	     24.47748288	      0.42721267	     24.25730618	      3.83069098	      0.00000000	      8.86453471	      1.34440399	     -4.55609802	     13.10635349	      0.22874902	     16.22148577	    -17.36946254	      0.00000000	      0.00140112	     -0.29455851	     -0.68760440	      0.00260202	     -0.39176282	     -0.73057967	      0.00230190	     -0.71618956	     -0.73057967	      0.00160134	     -0.71618956	     -0.60165385	      0.00130108	     -0.60066371	     -0.55867857	      0.00080060	     -0.45627113	     -0.51570330	      0.01000806	     -3.33210476	     -3.82424938	      0.00000000	      0.00000000	      0.00000000	      0.00000000	      0.00000000	     -5.38964062	     -1.65144596	     -8.77232625	     26.68534950	     47.79230496	      0.00000000	      5.00000014	    -10.68754345	     -8.65547810	      7.28640541	     22.60996025	     53.85101262	      0.00000000	      5.00000014
      9.86666667	      4.81559018	     -1.69342528	    174.42156525	      2.46333257	      0.89135918	      0.58773566	     14.20591988	     -1.62856333	    -10.75807166	     24.20160059	      0.42239761	     24.60492306	      4.06394972	      0.00000000	      8.54347381	      1.32037537	     -3.42331444	     12.76662509	      0.22281964	     16.87858648	    -16.75170171	      0.00000000	      0.00081779	     -0.28692346	     -0.79254974	      0.00151871	     -0.38160821	     -0.84208410	      0.00134354	     -0.69762571	     -0.84208410	      0.00093465	     -0.69762571	     -0.69348102	      0.00075940	     -0.58509433	     -0.64394666	      0.00046728	     -0.44444445	     -0.59441231	      0.00584138	     -3.24573561	     -4.40792389	      0.00000000	      0.00000000	      0.00000000	      0.00000000	      0.00000000	     -5.50877224	     -1.67027779	     -8.79127300	     26.91688415	     47.77022950	      0.00000000	      5.00000014	    -10.85057388	     -8.74180738	      7.51458204	     22.87598501	     53.95393732	      0.00000000	      5.00000014
